<svg width="40" height="40" viewBox="0 0 40 40" fill="none" xmlns="http://www.w3.org/2000/svg">
<path fill-rule="evenodd" clip-rule="evenodd" d="M18.9079 15.1548V30.3097L16.5669 30.2973L14.2259 30.285L14.2138 25.6176L14.2017 20.9501H9.42486H4.64807V21.0822C4.64807 21.3102 4.78824 22.3577 4.88973 22.8881C5.79456 27.6177 8.84007 31.6388 13.1564 33.803C14.848 34.6512 16.566 35.1422 18.6346 35.3688L18.9079 35.3988V37.6994V40L18.7296 39.9995C18.6316 39.9993 18.2626 39.9669 17.9097 39.9275C12.4549 39.3194 7.60118 36.6181 4.23273 32.3158C-0.0898888 26.7947 -1.19402 19.3148 1.34755 12.7702C3.54935 7.10029 8.22804 2.70922 14.012 0.88418C15.4422 0.432922 17.5769 0.0311639 18.6821 0.00527316L18.9079 0V15.1548ZM22.2693 1.4133C24.9662 4.77235 29.5911 10.5428 29.7672 10.7685C29.8728 10.9037 29.9699 11.0155 29.983 11.0168C29.996 11.0182 30.9372 9.8552 32.0744 8.4324L34.1421 5.84551L34.523 6.23853C37.0189 8.81382 38.8708 12.3759 39.6026 16.0095C40.5467 20.6967 39.7944 25.5933 37.4971 29.715C34.7182 34.7005 29.8912 38.322 24.3979 39.543C23.3256 39.7813 21.8419 39.9981 21.2726 39.9995L21.0944 40V37.6994V35.3988L21.3677 35.3688C25.1337 34.9563 28.2943 33.4704 30.8645 30.9042C33.4892 28.2835 35.0376 24.9074 35.3533 21.1164C35.5392 18.8839 35.1515 16.4462 34.2522 14.1924C34.1193 13.8592 33.9973 13.5871 33.9812 13.5876C33.9651 13.588 33.0643 14.6969 31.9793 16.0519C30.8944 17.4068 29.9933 18.5077 29.9769 18.4983C29.9605 18.489 29.0193 17.3258 27.8855 15.9135L25.8239 13.3456L25.8001 21.8153L25.7763 30.285L23.4354 30.2973L21.0944 30.3097V15.1548C21.0944 6.81967 21.1034 0 21.1145 0C21.1256 0 21.6453 0.635962 22.2693 1.4133ZM13.6535 5.95316C10.0042 7.66599 7.24231 10.5366 5.76609 14.1509C5.45256 14.9185 5.0608 16.1368 5.10467 16.2077C5.11807 16.2293 7.17044 16.247 9.66557 16.247H14.2021V10.9739C14.2021 8.07363 14.1968 5.70209 14.1903 5.70375C14.1837 5.70541 13.9422 5.81767 13.6535 5.95316Z" fill="#B8B5AF"/>
</svg>
